<mxfile host="app.diagrams.net" agent="Mozilla/5.0 (Windows NT 10.0; Win64; x64) AppleWebKit/537.36 (KHTML, like Gecko) Chrome/134.0.0.0 Safari/537.36" version="26.2.4">
  <diagram name="ModeloLogico" id="RKkzdUVt4busKLoa79Je">
    <mxGraphModel dx="860" dy="1017" grid="1" gridSize="10" guides="1" tooltips="1" connect="1" arrows="1" fold="1" page="1" pageScale="1" pageWidth="827" pageHeight="1169" math="0" shadow="0">
      <root>
        <mxCell id="0" />
        <mxCell id="1" parent="0" />
        <mxCell id="eesVs7z29WTwIhgkMBAQ-9" value="" style="edgeStyle=orthogonalEdgeStyle;rounded=0;orthogonalLoop=1;jettySize=auto;html=1;endArrow=none;startFill=0;" edge="1" parent="1" source="eesVs7z29WTwIhgkMBAQ-1" target="eesVs7z29WTwIhgkMBAQ-6">
          <mxGeometry relative="1" as="geometry" />
        </mxCell>
        <mxCell id="eesVs7z29WTwIhgkMBAQ-1" value="Clientes" style="rounded=1;arcSize=10;whiteSpace=wrap;html=1;align=center;" vertex="1" parent="1">
          <mxGeometry x="40" y="60" width="100" height="40" as="geometry" />
        </mxCell>
        <mxCell id="eesVs7z29WTwIhgkMBAQ-13" value="" style="edgeStyle=orthogonalEdgeStyle;rounded=0;orthogonalLoop=1;jettySize=auto;html=1;endArrow=none;startFill=0;" edge="1" parent="1" source="eesVs7z29WTwIhgkMBAQ-3" target="eesVs7z29WTwIhgkMBAQ-8">
          <mxGeometry relative="1" as="geometry" />
        </mxCell>
        <mxCell id="eesVs7z29WTwIhgkMBAQ-2" value="Produtos" style="rounded=1;arcSize=10;whiteSpace=wrap;html=1;align=center;" vertex="1" parent="1">
          <mxGeometry x="700" y="60" width="100" height="40" as="geometry" />
        </mxCell>
        <mxCell id="eesVs7z29WTwIhgkMBAQ-11" value="" style="edgeStyle=orthogonalEdgeStyle;rounded=0;orthogonalLoop=1;jettySize=auto;html=1;endArrow=none;startFill=0;" edge="1" parent="1" source="eesVs7z29WTwIhgkMBAQ-3" target="eesVs7z29WTwIhgkMBAQ-7">
          <mxGeometry relative="1" as="geometry" />
        </mxCell>
        <mxCell id="eesVs7z29WTwIhgkMBAQ-4" value="Pagamento" style="rounded=1;arcSize=10;whiteSpace=wrap;html=1;align=center;" vertex="1" parent="1">
          <mxGeometry x="364" y="300" width="100" height="40" as="geometry" />
        </mxCell>
        <mxCell id="eesVs7z29WTwIhgkMBAQ-10" value="" style="edgeStyle=orthogonalEdgeStyle;rounded=0;orthogonalLoop=1;jettySize=auto;html=1;endArrow=none;startFill=0;" edge="1" parent="1" source="eesVs7z29WTwIhgkMBAQ-6" target="eesVs7z29WTwIhgkMBAQ-3">
          <mxGeometry relative="1" as="geometry" />
        </mxCell>
        <mxCell id="eesVs7z29WTwIhgkMBAQ-6" value="Possui" style="shape=rhombus;perimeter=rhombusPerimeter;whiteSpace=wrap;html=1;align=center;" vertex="1" parent="1">
          <mxGeometry x="190" y="50" width="120" height="60" as="geometry" />
        </mxCell>
        <mxCell id="eesVs7z29WTwIhgkMBAQ-12" value="" style="edgeStyle=orthogonalEdgeStyle;rounded=0;orthogonalLoop=1;jettySize=auto;html=1;endArrow=none;startFill=0;" edge="1" parent="1" source="eesVs7z29WTwIhgkMBAQ-7" target="eesVs7z29WTwIhgkMBAQ-2">
          <mxGeometry relative="1" as="geometry" />
        </mxCell>
        <mxCell id="eesVs7z29WTwIhgkMBAQ-7" value="Possui" style="shape=rhombus;perimeter=rhombusPerimeter;whiteSpace=wrap;html=1;align=center;" vertex="1" parent="1">
          <mxGeometry x="520" y="50" width="120" height="60" as="geometry" />
        </mxCell>
        <mxCell id="eesVs7z29WTwIhgkMBAQ-14" value="" style="edgeStyle=orthogonalEdgeStyle;rounded=0;orthogonalLoop=1;jettySize=auto;html=1;endArrow=none;startFill=0;" edge="1" parent="1" source="eesVs7z29WTwIhgkMBAQ-8" target="eesVs7z29WTwIhgkMBAQ-4">
          <mxGeometry relative="1" as="geometry" />
        </mxCell>
        <mxCell id="eesVs7z29WTwIhgkMBAQ-8" value="Possui" style="shape=rhombus;perimeter=rhombusPerimeter;whiteSpace=wrap;html=1;align=center;" vertex="1" parent="1">
          <mxGeometry x="354" y="170" width="120" height="60" as="geometry" />
        </mxCell>
        <mxCell id="eesVs7z29WTwIhgkMBAQ-3" value="Pedidos" style="rounded=1;arcSize=10;whiteSpace=wrap;html=1;align=center;" vertex="1" parent="1">
          <mxGeometry x="364" y="60" width="100" height="40" as="geometry" />
        </mxCell>
        <mxCell id="eesVs7z29WTwIhgkMBAQ-17" value="(1,1)" style="text;html=1;align=center;verticalAlign=middle;resizable=0;points=[];autosize=1;strokeColor=none;fillColor=none;" vertex="1" parent="1">
          <mxGeometry x="140" y="50" width="50" height="30" as="geometry" />
        </mxCell>
      </root>
    </mxGraphModel>
  </diagram>
</mxfile>
